<svg xmlns="http://www.w3.org/2000/svg" xmlns:svg="http://www.w3.org/2000/svg" xmlns:xlink="http://www.w3.org/1999/xlink" id="svg5038" width="40" height="40" version="1.1"><defs id="defs5040"><linearGradient id="linearGradient3849"><stop id="stop3851" offset="0" stop-color="#fff" stop-opacity="1"/><stop id="stop3853" offset="1" stop-color="#f6f6f6" stop-opacity="1"/></linearGradient><linearGradient id="linearGradient5726" x1="806.395" x2="808" y1="1040.737" y2="1106.529" gradientTransform="matrix(0.04728153,0,0,0.52063887,144.29163,-314.78125)" gradientUnits="userSpaceOnUse" xlink:href="#linearGradient85841-7-0"/><linearGradient id="linearGradient85841-7-0"><stop id="stop85843-4-8" offset="0" stop-color="#242424" stop-opacity="1"/><stop id="stop85845-0-5" offset=".634" stop-color="#101010" stop-opacity="1"/><stop id="stop85847-7-3" offset="1" stop-color="#262626" stop-opacity="1"/></linearGradient><linearGradient id="linearGradient3855" x1="20" x2="20" y1="18" y2="38" gradientTransform="translate(0,1)" gradientUnits="userSpaceOnUse" xlink:href="#linearGradient3849"/></defs><metadata id="metadata5043"/><g id="layer1" transform="translate(0,-8)"><rect id="rect85718-2-9" width="40" height="40" x="0" y="8" fill="#555" fill-opacity="1" fill-rule="nonzero" stroke="none" stroke-width="1" color="#000" display="inline" enable-background="accumulate" opacity=".75" overflow="visible" rx="7.179" ry="7.179" visibility="visible" style="marker:none"/><path id="path4863-7-1" fill="url(#linearGradient3855)" fill-opacity="1" fill-rule="nonzero" stroke="none" stroke-width=".5" d="m 11.2,17 c -0.179012,0 -0.349221,0.02877 -0.515625,0.06875 C 9.717815,17.300959 9,18.160211 9,19.2 l 0,17.6 c 0,1.2188 0.9812,2.2 2.2,2.2 l 17.6,0 C 30.0188,39 31,38.0188 31,36.8 L 31,19.2 C 31,18.160211 30.282185,17.300959 29.315625,17.06875 29.145002,17.048816 28.976147,17 28.8,17 z" color="#000" display="inline" enable-background="new" overflow="visible" visibility="visible" style="marker:none"/><path id="path4681-0" fill="#555" fill-opacity="1" fill-rule="nonzero" stroke="none" stroke-width=".5" d="m 12,16 c -2.216,0 -4,1.784 -4,4 l 0,16 c 0,2.216 1.784,4 4,4 l 16,0 c 2.216,0 4,-1.784 4,-4 l 0,-16 c 0,-2.216 -1.784,-4 -4,-4 z m 0,2 16,0 c 1.108,0 2,0.892 2,2 l 0,16 c 0,1.108 -0.892,2 -2,2 l -16,0 c -1.108,0 -2,-0.892 -2,-2 l 0,-16 c 0,-1.108 0.892,-2 2,-2 z" color="#000" display="inline" enable-background="new" overflow="visible" visibility="visible" style="marker:none"/><path id="path4683-8" fill="#000" fill-opacity="1" fill-rule="nonzero" stroke="none" stroke-width=".5" d="m 12,18 c -1.108,0 -2,0.892 -2,2 l 0,2 c 0,-1.108 0.892,-2 2,-2 l 16,0 c 1.108,0 2,0.892 2,2 l 0,-2 c 0,-1.108 -0.892,-2 -2,-2 z" color="#000" display="inline" enable-background="new" opacity=".05" overflow="visible" visibility="visible" style="marker:none"/><path id="path3857" fill="#000" fill-opacity="1" stroke="none" d="m 12,27 c 0,0 3.050252,0.58578 6.40901,2.35356 C 24.40901,21.35356 34,13 36,13 36,13 24,27 20,35 l -2,0 z" display="inline" enable-background="new" opacity=".2"/><path id="path4703" fill="#86A455" fill-opacity="1" stroke="none" d="m 12,26 c 0,0 3.050252,0.58578 6.40901,2.35356 C 24.40901,20.35356 34,12 36,12 36,12 24,26 20,34 l -2,0 z" display="inline" enable-background="new"/></g></svg>