<svg xmlns="http://www.w3.org/2000/svg" xmlns:svg="http://www.w3.org/2000/svg" xmlns:xlink="http://www.w3.org/1999/xlink" id="svg5038" width="40" height="40" version="1.1"><defs id="defs5040"><linearGradient id="linearGradient5891" x1="205.841" x2="206.748" y1="246.709" y2="231.241" gradientUnits="userSpaceOnUse" xlink:href="#linearGradient5872"/><linearGradient id="linearGradient5872"><stop id="stop5874" offset="0" stop-color="#13508e" stop-opacity="1"/><stop id="stop5876" offset="1" stop-color="#1862af" stop-opacity="1"/></linearGradient><linearGradient id="linearGradient15341-5" x1="1205.575" x2="1205.575" y1="-186.453" y2="-202.346" gradientTransform="translate(-1609.9926,-78.958432)" gradientUnits="userSpaceOnUse" xlink:href="#linearGradient10354-2-9-1"/><linearGradient id="linearGradient10354-2-9-1"><stop id="stop10356-2-8-2" offset="0" stop-color="#bcbfb8" stop-opacity="1"/><stop id="stop10358-2-6-2" offset="1" stop-color="#fff" stop-opacity="1"/></linearGradient><linearGradient id="linearGradient15343-1" x1="260.925" x2="260.925" y1="233.777" y2="248.976" gradientTransform="matrix(0.84941206,0,0,0.84794288,-623.98415,-483.16392)" gradientUnits="userSpaceOnUse" xlink:href="#linearGradient10332-5-3-3"/><linearGradient id="linearGradient10332-5-3-3"><stop id="stop10334-5-3-1" offset="0" stop-color="#d3d7cf" stop-opacity="1"/><stop id="stop10336-29-3-4" offset="1" stop-color="#8f9985" stop-opacity="1"/></linearGradient><linearGradient id="linearGradient5726" x1="806.395" x2="808" y1="1040.737" y2="1106.529" gradientTransform="matrix(0.04728153,0,0,0.52063887,144.29163,-314.78125)" gradientUnits="userSpaceOnUse" xlink:href="#linearGradient85841-7-0"/><linearGradient id="linearGradient85841-7-0"><stop id="stop85843-4-8" offset="0" stop-color="#242424" stop-opacity="1"/><stop id="stop85845-0-5" offset=".634" stop-color="#101010" stop-opacity="1"/><stop id="stop85847-7-3" offset="1" stop-color="#262626" stop-opacity="1"/></linearGradient><linearGradient id="linearGradient5036" x1="806.395" x2="808" y1="1040.737" y2="1106.529" gradientTransform="matrix(0.04849388,0,0,0.53398858,-4.8290974,-542.54487)" gradientUnits="userSpaceOnUse" xlink:href="#linearGradient85841-7-0"/><linearGradient id="linearGradient15341-5-8" x1="1205.575" x2="1205.575" y1="-186.453" y2="-202.346" gradientTransform="matrix(2.0481327,0,0,2.0481327,-2450.0351,382.43617)" gradientUnits="userSpaceOnUse" xlink:href="#linearGradient10354-2-9-1-7"/><linearGradient id="linearGradient10354-2-9-1-7"><stop id="stop10356-2-8-2-9" offset="0" stop-color="#bcbfb8" stop-opacity="1"/><stop id="stop10358-2-6-2-3" offset="1" stop-color="#fff" stop-opacity="1"/></linearGradient><linearGradient id="linearGradient15343-1-8" x1="260.925" x2="260.925" y1="233.777" y2="248.976" gradientTransform="matrix(1.7397086,0,0,1.7366996,-430.55893,-445.43032)" gradientUnits="userSpaceOnUse" xlink:href="#linearGradient10332-5-3-3-8"/><linearGradient id="linearGradient10332-5-3-3-8"><stop id="stop10334-5-3-1-4" offset="0" stop-color="#d3d7cf" stop-opacity="1"/><stop id="stop10336-29-3-4-0" offset="1" stop-color="#8f9985" stop-opacity="1"/></linearGradient><linearGradient id="linearGradient5772" x1="806.395" x2="808" y1="1040.737" y2="1106.529" gradientTransform="matrix(0.04728153,0,0,0.52063887,344.29163,-313.78125)" gradientUnits="userSpaceOnUse" xlink:href="#linearGradient85841-7-0-9"/><linearGradient id="linearGradient85841-7-0-9"><stop id="stop85843-4-8-3" offset="0" stop-color="#242424" stop-opacity="1"/><stop id="stop85845-0-5-1" offset=".634" stop-color="#101010" stop-opacity="1"/><stop id="stop85847-7-3-3" offset="1" stop-color="#262626" stop-opacity="1"/></linearGradient><linearGradient id="linearGradient5153" x1="806.395" x2="808" y1="1040.737" y2="1106.529" gradientTransform="matrix(0.0484939,0,0,0.5339888,-4.8290988,-542.54512)" gradientUnits="userSpaceOnUse" xlink:href="#linearGradient85841-7-0-9"/><linearGradient id="linearGradient3855" x1="20" x2="20" y1="18" y2="38" gradientTransform="translate(-1.494751e-7,1.0000004)" gradientUnits="userSpaceOnUse" xlink:href="#linearGradient3849"/><linearGradient id="linearGradient3849"><stop id="stop3851" offset="0" stop-color="#fff" stop-opacity="1"/><stop id="stop3853" offset="1" stop-color="#f6f6f6" stop-opacity="1"/></linearGradient></defs><metadata id="metadata5043"/><g id="layer1" transform="translate(0,-8)"><rect id="rect85718-2-9" width="40" height="40" x="0" y="8" fill="#555" fill-opacity="1" fill-rule="nonzero" stroke="none" stroke-width="1" color="#000" display="inline" enable-background="accumulate" opacity=".75" overflow="visible" rx="7.179" ry="7.179" visibility="visible" style="marker:none"/><path id="path4863-7-1" fill="url(#linearGradient3855)" fill-opacity="1" fill-rule="nonzero" stroke="none" stroke-width=".5" d="m 11.2,17 c -0.179012,0 -0.349221,0.02877 -0.515625,0.06875 C 9.7178152,17.300959 9.0000002,18.160211 9.0000002,19.2 l 0,17.6 c 0,1.2188 0.9812,2.2 2.1999998,2.2 l 17.6,0 C 30.0188,39 31,38.0188 31,36.8 L 31,19.2 C 31,18.160211 30.282185,17.300959 29.315625,17.06875 29.145002,17.048816 28.976147,17 28.8,17 z" color="#000" display="inline" enable-background="new" overflow="visible" visibility="visible" style="marker:none"/><path id="path4681-0" fill="#555" fill-opacity="1" fill-rule="nonzero" stroke="none" stroke-width=".5" d="m 12,16 c -2.2159998,0 -3.9999998,1.784 -3.9999998,4 l 0,16 c 0,2.216 1.784,4 3.9999998,4 l 16,0 c 2.216,0 4,-1.784 4,-4 l 0,-16 c 0,-2.216 -1.784,-4 -4,-4 z m 0,2 16,0 c 1.108,0 2,0.892 2,2 l 0,16 c 0,1.108 -0.892,2 -2,2 l -16,0 c -1.108,0 -2,-0.892 -2,-2 l 0,-16 c 0,-1.108 0.892,-2 2,-2 z" color="#000" display="inline" enable-background="new" overflow="visible" visibility="visible" style="marker:none"/><path id="path4683-8" fill="#000" fill-opacity="1" fill-rule="nonzero" stroke="none" stroke-width=".5" d="m 12,18 c -1.108,0 -2,0.892 -2,2 l 0,2 c 0,-1.108 0.892,-2 2,-2 l 16,0 c 1.108,0 2,0.892 2,2 l 0,-2 c 0,-1.108 -0.892,-2 -2,-2 z" color="#000" display="inline" enable-background="new" opacity=".05" overflow="visible" visibility="visible" style="marker:none"/></g></svg>