<svg xmlns="http://www.w3.org/2000/svg" xmlns:svg="http://www.w3.org/2000/svg" id="svg32934" width="2" height="24" version="1.1"><metadata id="metadata32939"/><g id="layer1" transform="translate(0,8)"><path id="path5824" fill="#ddd" fill-opacity="1" stroke="none" d="m 870.53682,617.14966 a 1.9003495,1.9003495 0 1 1 -3.80069,0 1.9003495,1.9003495 0 1 1 3.80069,0 z" display="inline" enable-background="new" transform="matrix(0.52621899,0,0,0.52621789,-456.09301,-318.75519)"/><path id="path5828" fill="#ddd" fill-opacity="1" stroke="none" d="m 870.53682,617.14966 a 1.9003495,1.9003495 0 1 1 -3.80069,0 1.9003495,1.9003495 0 1 1 3.80069,0 z" display="inline" enable-background="new" transform="matrix(0.52621899,0,0,0.52621789,-456.09301,-326.75519)"/><path id="path5830" fill="#ddd" fill-opacity="1" stroke="none" d="m 870.53682,617.14966 a 1.9003495,1.9003495 0 1 1 -3.80069,0 1.9003495,1.9003495 0 1 1 3.80069,0 z" display="inline" enable-background="new" transform="matrix(0.52621899,0,0,0.52621789,-456.09301,-330.75519)"/><path id="path5824-3" fill="#ddd" fill-opacity="1" stroke="none" d="m 870.53682,617.14966 a 1.9003495,1.9003495 0 1 1 -3.80069,0 1.9003495,1.9003495 0 1 1 3.80069,0 z" display="inline" enable-background="new" transform="matrix(0.52621899,0,0,0.52621789,-456.09301,-310.75517)"/><path id="path5828-7" fill="#ddd" fill-opacity="1" stroke="none" d="m 870.53682,617.14966 a 1.9003495,1.9003495 0 1 1 -3.80069,0 1.9003495,1.9003495 0 1 1 3.80069,0 z" display="inline" enable-background="new" transform="matrix(0.52621899,0,0,0.52621789,-456.09301,-314.75519)"/><path id="path5313" fill="#ddd" fill-opacity="1" stroke="none" d="m 870.53682,617.14966 a 1.9003495,1.9003495 0 1 1 -3.80069,0 1.9003495,1.9003495 0 1 1 3.80069,0 z" display="inline" enable-background="new" transform="matrix(0.52621899,0,0,0.52621789,-456.09301,-322.75519)"/></g></svg>