<svg xmlns="http://www.w3.org/2000/svg" xmlns:svg="http://www.w3.org/2000/svg" xmlns:xlink="http://www.w3.org/1999/xlink" id="svg2" width="16" height="16" version="1.0"><defs id="defs11"><linearGradient id="linearGradient3852"><stop id="stop3854" offset="0" stop-color="#000" stop-opacity="1"/><stop id="stop3856" offset="1" stop-color="#000" stop-opacity="0"/></linearGradient><linearGradient id="linearGradient3846"><stop id="stop3848" offset="0" stop-color="#000" stop-opacity="1"/><stop id="stop3850" offset="1" stop-color="#000" stop-opacity="0"/></linearGradient><linearGradient id="linearGradient3768"><stop id="stop3770" offset="0" stop-color="#555" stop-opacity="1"/><stop id="stop3772" offset="1" stop-color="#555" stop-opacity="0"/></linearGradient><linearGradient id="linearGradient3780" x1="12" x2="23" y1="6" y2="10" gradientUnits="userSpaceOnUse" xlink:href="#linearGradient3768"/><linearGradient id="linearGradient3787" x1="5.875" x2="5.875" y1="31.125" y2="4.125" gradientTransform="matrix(-1,0,0,1,23.875,-0.125)" gradientUnits="userSpaceOnUse" xlink:href="#linearGradient3768"/></defs><metadata id="metadata25"/><g id="g3792" transform="matrix(0,1,-1,0,20,-4)"><path id="path2990" fill="url(#linearGradient3780)" fill-opacity="1" stroke="none" stroke-width="2" d="m 12,4 c -4.4064334,0 -8,3.5935666 -8,8 0,4.406433 3.5935666,8 8,8 l 0,-2 C 8.6744469,18 6,15.325553 6,12 6,8.6744469 8.6744469,6 12,6 12.552285,6 13,5.5522847 13,5 13,4.4477153 12.552285,4 12,4 z" baseline-shift="baseline" color="#000" direction="ltr" display="inline" enable-background="accumulate" font-family="Sans" font-size="medium" font-stretch="normal" font-style="normal" font-variant="normal" font-weight="normal" letter-spacing="normal" overflow="visible" text-anchor="start" text-decoration="none" visibility="visible" word-spacing="normal" writing-mode="lr-tb" style="text-indent:0;text-align:start;line-height:normal;text-transform:none;block-progression:tb;marker:none;-inkscape-font-specification:Sans"/><path id="path3785" fill="url(#linearGradient3787)" fill-opacity="1" stroke="none" stroke-width="2" d="m 12,4 c 4.406433,0 8,3.5935666 8,8 0,4.406433 -3.593567,8 -8,8 l 0,-2 c 3.325553,0 6,-2.674447 6,-6 0,-3.3255531 -2.674447,-6 -6,-6 z" baseline-shift="baseline" color="#000" direction="ltr" display="inline" enable-background="accumulate" font-family="Sans" font-size="medium" font-stretch="normal" font-style="normal" font-variant="normal" font-weight="normal" letter-spacing="normal" overflow="visible" text-anchor="start" text-decoration="none" visibility="visible" word-spacing="normal" writing-mode="lr-tb" style="text-indent:0;text-align:start;line-height:normal;text-transform:none;block-progression:tb;marker:none;-inkscape-font-specification:Sans"/></g></svg>