<svg xmlns="http://www.w3.org/2000/svg" xmlns:svg="http://www.w3.org/2000/svg" xmlns:xlink="http://www.w3.org/1999/xlink" id="svg2" width="22" height="22" version="1.2"><defs id="defs4"><linearGradient id="linearGradient4011-9-9-70-6-4"><stop id="stop4013-5-4-3-4-3" offset="0" stop-color="#fff" stop-opacity="1"/><stop id="stop4015-1-5-70-6-7" offset=".508" stop-color="#fff" stop-opacity=".235"/><stop id="stop4017-7-0-13-7-0" offset=".835" stop-color="#fff" stop-opacity=".157"/><stop id="stop4019-1-12-7-5-0" offset="1" stop-color="#fff" stop-opacity=".392"/></linearGradient><linearGradient id="linearGradient4215-8-4-7-28"><stop id="stop4217-1-2-7-5" offset="0" stop-color="#dcdcdc" stop-opacity="1"/><stop id="stop4219-3-4-5-0" offset="1" stop-color="#f0f0f0" stop-opacity="1"/></linearGradient><linearGradient id="linearGradient6377" x1="71.204" x2="71.204" y1="6.238" y2="44.341" gradientTransform="matrix(0.51351346,0,0,0.51351346,-25.83613,-2.02128)" gradientUnits="userSpaceOnUse" xlink:href="#linearGradient4011-9-9-70-6-4"/><linearGradient id="linearGradient6387" x1="38.977" x2="38.977" y1="59.968" y2="8.093" gradientTransform="matrix(0.41176471,0,0,0.41176471,-2.17647,-3)" gradientUnits="userSpaceOnUse" xlink:href="#linearGradient4215-8-4-7-28"/><linearGradient id="linearGradient4011-9-9-70-61-7"><stop id="stop4013-5-4-3-8-3" offset="0" stop-color="#fff" stop-opacity="1"/><stop id="stop4015-1-5-70-9-5" offset=".508" stop-color="#fff" stop-opacity=".235"/><stop id="stop4017-7-0-13-0-1" offset=".835" stop-color="#fff" stop-opacity=".157"/><stop id="stop4019-1-12-7-0-7" offset="1" stop-color="#fff" stop-opacity=".392"/></linearGradient><linearGradient id="linearGradient14702" x1="38.977" x2="38.977" y1="59.968" y2="8.093" gradientTransform="matrix(-0.41176471,0,0,0.41176471,24.17647,-2.9999995)" gradientUnits="userSpaceOnUse" xlink:href="#linearGradient4215-8-4-07-7"/><linearGradient id="linearGradient4215-8-4-07-7"><stop id="stop4217-1-2-1-2" offset="0" stop-color="#333" stop-opacity="1"/><stop id="stop4219-3-4-0-96" offset="1" stop-color="#555" stop-opacity="1"/></linearGradient></defs><metadata id="metadata7"/><path color="#000" style="marker:none" id="path4665" fill="#000" fill-opacity="1" fill-rule="nonzero" stroke="none" stroke-width="1" d="M 11,22 C 5.4772479,22 1,17.522753 1,12 0.99999971,11.832625 1.0231212,11.665359 1.03125,11.5 1.2913485,16.79087 5.6446232,21 11,21 16.355377,21 20.708652,16.79087 20.96875,11.5 20.97685,11.665359 21,11.832625 21,12 21,17.522753 16.522752,22 11,22 z" display="inline" enable-background="accumulate" opacity=".2" overflow="visible" visibility="visible"/><path id="path2555-7-1-9-4" fill="url(#linearGradient14702)" fill-opacity="1" fill-rule="nonzero" stroke="none" stroke-width="1" d="m 11,0.5000005 c 5.79354,0 10.5,4.70646 10.5,10.5000005 C 21.5,16.79354 16.79354,21.5 11,21.5 5.20646,21.5 0.49999,16.79354 0.5,11.000001 0.5,5.2064605 5.20646,0.5000005 11,0.5000005 z" color="#000" display="inline" enable-background="accumulate" overflow="visible" visibility="visible" style="marker:none"/><path stroke-width="1" style="marker:none" id="path2555-7-1-9-9-41" fill="none" stroke="#000" stroke-dasharray="none" stroke-dashoffset="0" stroke-linecap="round" stroke-linejoin="round" stroke-miterlimit="4" stroke-opacity="1" d="m 11,0.5000005 c 5.79354,0 10.5,4.70646 10.5,10.5000005 C 21.5,16.79354 16.79354,21.5 11,21.5 5.20646,21.5 0.49999,16.79354 0.5,11.000001 0.5,5.2064605 5.20646,0.5000005 11,0.5000005 z" color="#000" display="inline" enable-background="accumulate" opacity=".61" overflow="visible" visibility="visible"/><path color="#000" style="marker:none" id="path4651" fill="#fff" fill-opacity="1" fill-rule="nonzero" stroke="none" stroke-width="1" d="M 11 1 C 5.4772478 1 1 5.4772473 1 11 C 0.99999971 11.167375 1.0231212 11.334641 1.03125 11.5 C 1.2913484 6.2091297 5.6446231 2 11 2 C 16.355377 2 20.708652 6.2091297 20.96875 11.5 C 20.976879 11.334641 21 11.167375 21 11 C 21 5.4772473 16.522752 1 11 1 z" display="inline" enable-background="accumulate" opacity=".2" overflow="visible" visibility="visible"/></svg>