<svg xmlns="http://www.w3.org/2000/svg" xmlns:svg="http://www.w3.org/2000/svg" id="svg2" width="10" height="19" version="1.1"><defs id="defs4"><clipPath id="clipPath4069" clipPathUnits="userSpaceOnUse"><rect id="rect4071" width="10" height="19" x="20" y="1033.362" fill="#f0f" fill-opacity="1" fill-rule="nonzero" stroke="none" stroke-width="1" color="#000" display="inline" enable-background="accumulate" opacity=".12" overflow="visible" visibility="visible" style="marker:none"/></clipPath></defs><metadata id="metadata7"/><g id="layer1" transform="translate(0,-1033.3622)"><path id="path3789" fill="#fff" fill-opacity="1" fill-rule="nonzero" stroke="none" stroke-width="12" d="M 6 8 C 4.8954305 8 4 8.8954305 4 10 C 4 11.104569 4.8954305 12 6 12 C 7.1045695 12 8 11.104569 8 10 C 8 8.8954305 7.1045695 8 6 8 z M 6 9 C 6.5522847 9 7 9.4477153 7 10 C 7 10.552285 6.5522847 11 6 11 C 5.4477153 11 5 10.552285 5 10 C 5 9.4477153 5.4477153 9 6 9 z" color="#000" display="inline" enable-background="new" overflow="visible" transform="translate(0,1033.3622)" visibility="visible" style="marker:none"/></g></svg>