<svg xmlns="http://www.w3.org/2000/svg" xmlns:svg="http://www.w3.org/2000/svg" id="svg2" width="20" height="37" version="1.1"><defs id="defs4"><clipPath id="clipPath4219" clipPathUnits="userSpaceOnUse"><rect id="rect4221" width="20" height="37" x="20" y="1015.362" fill="#f0f" fill-opacity="1" fill-rule="nonzero" stroke="none" stroke-width="1" color="#000" display="inline" enable-background="accumulate" opacity=".12" overflow="visible" visibility="visible" style="marker:none"/></clipPath></defs><metadata id="metadata7"/><g id="layer1" transform="translate(0,-1015.3622)"><path id="path3019" fill="#fff" fill-opacity="1" fill-rule="nonzero" stroke="none" stroke-width="12" d="M 12 15 C 9.790861 15 8 16.790861 8 19 C 8 21.209139 9.790861 23 12 23 C 14.209139 23 16 21.209139 16 19 C 16 16.790861 14.209139 15 12 15 z M 12 17 C 13.104569 17 14 17.89543 14 19 C 14 20.10457 13.104569 21 12 21 C 10.895431 21 10 20.10457 10 19 C 10 17.89543 10.895431 17 12 17 z" color="#000" display="inline" enable-background="new" overflow="visible" transform="translate(0,1015.3622)" visibility="visible" style="marker:none"/></g></svg>