<svg xmlns="http://www.w3.org/2000/svg" xmlns:svg="http://www.w3.org/2000/svg" id="svg32934" width="24" height="2" version="1.1"><metadata id="metadata32939"/><g id="layer1" transform="translate(0,-14)"><path id="path5824" fill="#ddd" fill-opacity="1" stroke="none" d="m 870.53682,617.14966 a 1.9003495,1.9003495 0 1 1 -3.80069,0 1.9003495,1.9003495 0 1 1 3.80069,0 z" display="inline" enable-background="new" transform="matrix(-0.52621972,0,0,-0.52621861,467.09364,339.75564)"/><path id="path5828" fill="#ddd" fill-opacity="1" stroke="none" d="m 870.53682,617.14966 a 1.9003495,1.9003495 0 1 1 -3.80069,0 1.9003495,1.9003495 0 1 1 3.80069,0 z" display="inline" enable-background="new" transform="matrix(-0.52621972,0,0,-0.52621861,475.09364,339.75564)"/><path id="path5830" fill="#ddd" fill-opacity="1" stroke="none" d="m 870.53682,617.14966 a 1.9003495,1.9003495 0 1 1 -3.80069,0 1.9003495,1.9003495 0 1 1 3.80069,0 z" display="inline" enable-background="new" transform="matrix(-0.52621972,0,0,-0.52621861,479.09364,339.75564)"/><path id="path5824-3" fill="#ddd" fill-opacity="1" stroke="none" d="m 870.53682,617.14966 a 1.9003495,1.9003495 0 1 1 -3.80069,0 1.9003495,1.9003495 0 1 1 3.80069,0 z" display="inline" enable-background="new" transform="matrix(-0.52621972,0,0,-0.52621861,459.09364,339.75564)"/><path id="path5828-7" fill="#ddd" fill-opacity="1" stroke="none" d="m 870.53682,617.14966 a 1.9003495,1.9003495 0 1 1 -3.80069,0 1.9003495,1.9003495 0 1 1 3.80069,0 z" display="inline" enable-background="new" transform="matrix(-0.52621972,0,0,-0.52621861,463.09364,339.75564)"/><path id="path5321" fill="#ddd" fill-opacity="1" stroke="none" d="m 870.53682,617.14966 a 1.9003495,1.9003495 0 1 1 -3.80069,0 1.9003495,1.9003495 0 1 1 3.80069,0 z" display="inline" enable-background="new" transform="matrix(-0.52621972,0,0,-0.52621861,471.09364,339.75564)"/></g></svg>