<svg xmlns="http://www.w3.org/2000/svg" xmlns:svg="http://www.w3.org/2000/svg" xmlns:xlink="http://www.w3.org/1999/xlink" id="svg7539" width="60" height="24" version="1.1"><defs id="defs7541"><linearGradient id="linearGradient4929-9-0-03-2-2-2-3-9-7-3-7-7-2-6-3-4-7-3"><stop id="stop4931-7-3-3-9-6-4-6-1-9-5-2-4-0-3-4-8-9-6" offset="0" stop-color="#fff" stop-opacity="1"/><stop id="stop4933-0-1-2-7-9-6-0-7-8-0-4-1-4-6-6-1-0-2" offset="1" stop-color="#fff" stop-opacity="0"/></linearGradient><linearGradient id="linearGradient4695-1-4-3-5-0"><stop id="stop4697-9-9-7-0-1" offset="0" stop-color="#000" stop-opacity="1"/><stop id="stop4699-5-8-9-0-4" offset="1" stop-color="#000" stop-opacity="0"/></linearGradient><linearGradient id="linearGradient3006" x1="617.509" x2="617.509" y1="446.545" y2="457.801" gradientTransform="matrix(0.76623379,0,0,1.0952381,-473.64928,-513.38805)" gradientUnits="userSpaceOnUse" xlink:href="#linearGradient4929-9-0-03-2-2-2-3-9-7-3-7-7-2-6-3-4-7-3"/><linearGradient id="linearGradient3009" x1="292.857" x2="292.857" y1="211.076" y2="233.827" gradientTransform="matrix(0.2422908,0,0,0.9047619,-92.026279,-188.66796)" gradientUnits="userSpaceOnUse" xlink:href="#linearGradient4695-1-4-3-5-0"/><linearGradient id="linearGradient27416-1-72"><stop id="stop27420-2-84" offset="0" stop-color="#c881d3" stop-opacity="1"/><stop id="stop27422-3-5" offset="1" stop-color="#86A455" stop-opacity="1"/></linearGradient><linearGradient id="linearGradient4364" x1="634.265" x2="634.265" y1="631.878" y2="656.008" gradientTransform="matrix(3.5286917,0,0,0.97190815,-2260.9725,-614.89924)" gradientUnits="userSpaceOnUse" xlink:href="#linearGradient27416-1-72"/></defs><metadata id="metadata7544"/><path id="rect6132-8-2-8-0-0-0-10-0-6-0-6-2-0-5-7-3-3-7-8-4-0-2-5-3-6-7-8-0-5" fill="url(#linearGradient4364)" fill-opacity="1" fill-rule="nonzero" stroke="none" stroke-width="1" d="m -47.999832,1.4998016 36,0 c 5.8169998,0 10.4999998,4.683 10.4999998,10.5000004 0,5.817 -4.683,10.5 -10.4999998,10.5 l -36,0 c -5.817,0 -10.5,-4.683 -10.5,-10.5 0,-5.8170004 4.683,-10.5000004 10.5,-10.5000004 z" color="#000" display="inline" enable-background="accumulate" opacity=".99" overflow="visible" transform="scale(-1,1)" visibility="visible" style="marker:none"/><path id="rect6132-8-2-8-0-0-0-4-6-9-7-5-4-2-6-1-1-2-7-4-6-3-4-3-0-8-1-1-9" fill="none" stroke="url(#linearGradient3009)" stroke-dashoffset="0" stroke-linecap="round" stroke-linejoin="round" stroke-miterlimit="4" stroke-opacity="1" stroke-width="1" d="m -47.999836,2.4998016 36,0 c 5.263,0 9.5,4.237 9.5,9.5000004 0,5.263 -4.237,9.5 -9.5,9.5 l -36,0 c -5.263,0 -9.5,-4.237 -9.5,-9.5 0,-5.2630004 4.237,-9.5000004 9.5,-9.5000004 z" color="#000" display="inline" enable-background="accumulate" opacity=".05" overflow="visible" transform="scale(-1,1)" visibility="visible" style="marker:none"/><path id="rect6132-8-2-8-0-0-0-4-6-9-7-5-4-2-6-1-1-2-7-4-6-3-0-1-0-16-8-3-0-0-3" fill="none" stroke="url(#linearGradient3006)" stroke-dashoffset="0" stroke-linecap="round" stroke-linejoin="round" stroke-miterlimit="4" stroke-opacity="1" stroke-width="1" d="m -48.000015,-23.499786 35.999996,0 c 6.3709999,0 11.49999993,5.129 11.49999993,11.5 0,6.3709996 -5.12900003,11.49999962 -11.49999993,11.49999962 l -35.999996,0 c -6.371,0 -11.5,-5.12900002 -11.5,-11.49999962 0,-6.371 5.129,-11.5 11.5,-11.5 z" color="#000" display="inline" enable-background="accumulate" opacity=".1" overflow="visible" transform="scale(-1,-1)" visibility="visible" style="marker:none"/><path id="rect6132-8-2-8-0-0-0-10-0-6-0-6-2-0-5-7-3-3-7-8-4-0-2-5-3-6-7-8-6-5" fill="none" stroke="#000" stroke-dashoffset="0" stroke-linecap="round" stroke-linejoin="round" stroke-miterlimit="4" stroke-opacity="1" stroke-width="1" d="m -47.999831,1.4998016 36.000002,0 c 5.8170002,0 10.5000007,4.683 10.5000007,10.5000004 0,5.817 -4.6830005,10.5 -10.5000007,10.5 l -36.000002,0 c -5.817001,0 -10.500001,-4.683 -10.500001,-10.5 0,-5.8170004 4.683,-10.5000004 10.500001,-10.5000004 z" color="#000" display="inline" enable-background="accumulate" opacity=".61" overflow="visible" transform="scale(-1,1)" visibility="visible" style="marker:none"/><rect id="rect6146" width="2" height="12" x="11" y="7" fill="#000" fill-opacity="1" stroke="none" opacity=".3"/><rect id="rect5375" width="2" height="12" x="11" y="6" fill="#fff" fill-opacity="1" stroke="none"/><path id="path3812" fill="none" stroke="#000" stroke-dasharray="none" stroke-miterlimit="4" stroke-opacity="1" stroke-width="2" d="m 50,12 a 6,6 0 1 1 -12,0 6,6 0 1 1 12,0 z" opacity=".3" transform="translate(4,1)"/><path id="path3042" fill="none" stroke="#fff" stroke-dasharray="none" stroke-miterlimit="4" stroke-opacity="1" stroke-width="2" d="m 50,12 a 6,6 0 1 1 -12,0 6,6 0 1 1 12,0 z" opacity="1" transform="translate(4,0)"/></svg>