<svg xmlns="http://www.w3.org/2000/svg" xmlns:svg="http://www.w3.org/2000/svg" id="svg11211" width="62" height="62" version="1.1" viewBox="0 0 62 62"><defs id="defs11213"><clipPath id="clipPath10504-2-2" clipPathUnits="userSpaceOnUse"><path id="path10506-3-2" fill="#f0f" fill-opacity="1" fill-rule="nonzero" stroke="none" stroke-width="2.5" d="m 4,24 c -2.216,0 -4,1.784 -4,4 l 0,56 c 0,2.216 1.784,4 4,4 l 56,0 c 2.216,0 4,-1.784 4,-4 l 0,-56 c 0,-2.216 -1.784,-4 -4,-4 L 4,24 z m 6,6 44,0 c 2.216,0 4,1.784 4,4 l 0,44 c 0,2.216 -1.784,4 -4,4 L 10,82 C 7.784,82 6,80.216 6,78 L 6,34 c 0,-2.216 1.784,-4 4,-4 z" color="#000" display="inline" enable-background="accumulate" opacity=".2" overflow="visible" visibility="visible" style="marker:none"/></clipPath><filter id="filter3845"><feGaussianBlur id="feGaussianBlur3847" stdDeviation="1.82"/></filter></defs><metadata id="metadata11216"/></svg>