<svg xmlns="http://www.w3.org/2000/svg" xmlns:svg="http://www.w3.org/2000/svg" id="svg5474" width="200" height="200" version="1.1" viewBox="0 0 200 200"><defs id="defs5476"><clipPath id="clipPath5057-1" clipPathUnits="userSpaceOnUse"><path d="m 427.33333,22.026666 0,69.333333 69.33333,0 0,-69.333333 -69.33333,0 z m 13.11917,9.013333 43.095,0 c 2.27623,0 4.10583,1.829606 4.10583,4.105834 l 0,43.094999 c 0,2.276228 -1.8296,4.105834 -4.10583,4.105834 l -43.095,0 c -2.27623,0 -4.10583,-1.829606 -4.10583,-4.105834 l 0,-43.094999 c 0,-2.276228 1.8296,-4.105834 4.10583,-4.105834 z" style="marker:none" id="path5059-2" fill="#f0f" fill-opacity="1" fill-rule="nonzero" stroke="none" stroke-width="1" color="#000" display="inline" enable-background="accumulate" overflow="visible" visibility="visible"/></clipPath><filter id="filter5061-6" width="1.264" height="1.264" x="-.132" y="-.132" color-interpolation-filters="sRGB"><feGaussianBlur id="feGaussianBlur5063-7" stdDeviation="2.86"/></filter><clipPath id="clipPath5464" clipPathUnits="userSpaceOnUse"><path d="m 427.33333,22.026666 0,69.333333 69.33333,0 0,-69.333333 -69.33333,0 z m 13.11917,9.013333 43.095,0 c 2.27623,0 4.10583,1.829606 4.10583,4.105834 l 0,43.094999 c 0,2.276228 -1.8296,4.105834 -4.10583,4.105834 l -43.095,0 c -2.27623,0 -4.10583,-1.829606 -4.10583,-4.105834 l 0,-43.094999 c 0,-2.276228 1.8296,-4.105834 4.10583,-4.105834 z" style="marker:none" id="path5466" fill="#f0f" fill-opacity="1" fill-rule="nonzero" stroke="none" stroke-width="1" color="#000" display="inline" enable-background="accumulate" overflow="visible" visibility="visible"/></clipPath><filter id="filter5067-0" color-interpolation-filters="sRGB"><feGaussianBlur id="feGaussianBlur5069-2" stdDeviation="1.3"/></filter></defs><metadata id="metadata5479"/></svg>