<svg xmlns="http://www.w3.org/2000/svg" xmlns:svg="http://www.w3.org/2000/svg" id="svg2" width="20" height="37" version="1.1"><defs id="defs4"><clipPath id="clipPath4219" clipPathUnits="userSpaceOnUse"><rect id="rect4221" width="20" height="37" x="20" y="1015.362" fill="#f0f" fill-opacity="1" fill-rule="nonzero" stroke="none" stroke-width="1" color="#000" display="inline" enable-background="accumulate" opacity=".12" overflow="visible" visibility="visible" style="marker:none"/></clipPath></defs><metadata id="metadata7"/><g id="layer1" transform="translate(0,-1015.3622)"><path id="path3019" fill="#fff" fill-opacity="1" fill-rule="nonzero" stroke="none" stroke-width="12" d="M 8 15 C 5.790861 15 4 16.790861 4 19 C 4 21.209139 5.790861 23 8 23 C 10.209139 23 12 21.209139 12 19 C 12 16.790861 10.209139 15 8 15 z M 8 17 C 9.1045695 17 10 17.89543 10 19 C 10 20.10457 9.1045695 21 8 21 C 6.8954305 21 6 20.10457 6 19 C 6 17.89543 6.8954305 17 8 17 z" color="#000" display="inline" enable-background="new" overflow="visible" transform="translate(0,1015.3622)" visibility="visible" style="marker:none"/></g></svg>