<svg xmlns="http://www.w3.org/2000/svg" xmlns:svg="http://www.w3.org/2000/svg" id="svg2" width="10" height="19" version="1.1"><defs id="defs4"><clipPath id="clipPath4069" clipPathUnits="userSpaceOnUse"><rect id="rect4071" width="10" height="19" x="20" y="1033.362" fill="#f0f" fill-opacity="1" fill-rule="nonzero" stroke="none" stroke-width="1" color="#000" display="inline" enable-background="accumulate" opacity=".12" overflow="visible" visibility="visible" style="marker:none"/></clipPath><filter id="filter4153" width="1.384" height="1.64" x="-.192" y="-.32" color-interpolation-filters="sRGB"><feGaussianBlur id="feGaussianBlur4155" stdDeviation=".4"/></filter></defs><metadata id="metadata7"/><g id="layer1" transform="translate(0,-1033.3622)"><path id="path3789" fill="#fff" fill-opacity="1" fill-rule="nonzero" stroke="none" stroke-width="12" d="M 4 8 C 2.8954305 8 2 8.8954305 2 10 C 2 11.104569 2.8954305 12 4 12 C 5.1045695 12 6 11.104569 6 10 C 6 8.8954305 5.1045695 8 4 8 z M 4 9 C 4.5522847 9 5 9.4477153 5 10 C 5 10.552285 4.5522847 11 4 11 C 3.4477153 11 3 10.552285 3 10 C 3 9.4477153 3.4477153 9 4 9 z" color="#000" display="inline" enable-background="new" overflow="visible" transform="translate(0,1033.3622)" visibility="visible" style="marker:none"/></g></svg>